<?xml version="1.0" encoding="utf-8"?>
<!-- Generator: Adobe Illustrator 23.0.3, SVG Export Plug-In . SVG Version: 6.00 Build 0)  -->
<svg version="1.1" xmlns="http://www.w3.org/2000/svg" xmlns:xlink="http://www.w3.org/1999/xlink" x="0px" y="0px"
	 viewBox="0 0 381.6 460.69" style="enable-background:new 0 0 381.6 460.69;" xml:space="preserve">
<style type="text/css">
	.st0{display:none;}
	.st1{fill:#8DBC26;}
	.st2{fill:#1C844D;}
	.st3{fill:#9E5726;}
</style>
<g id="Capa_1" class="st0">
</g>
<g id="Capa_2">
	<g>
		<g>
			<path class="st2" d="M284.33,172.93c-1.89-3.32-8.59-1.45-8.66-1.43c-0.1,0.02-16.95,5.61-28.24,8.69
				c-6.73,1.84-10.62-0.02-12.69-1.92c-3.46-3.18-4-8.2-3.34-11.82c0.86-4.73,9.5-16.84,19.06-29.88c1.64-2.24,3.01-4.11,3.89-5.35
				c4.42-6.3,5.45-11.93,3.65-13.25c-2.16-1.58-4.26-1.08-9.79,2.33c-4.26,2.65-24.8,26.96-31.88,35.76
				c-3.24,4.02-7.39,5.71-11.08,4.53c-3.35-1.08-5.68-4.36-5.9-8.36c-0.3-5.49,2.66-12.25,7.54-23.44c1.27-2.89,2.67-6.11,4.19-9.69
				c6.12-14.42,5.75-24.73,4.25-25.77c0,0.01-0.48,0-1.58,0.75c-7.81,5.43-25.78,35.69-30.53,51.42
				c-2.58,8.59-6.41,13.79-11.35,15.42c-3.48,1.16-7.23,0.43-10.56-2.02c-6.89-5.08-9.1-25.98-8.23-44.44
				c0.56-11.91-1.94-15.46-3.03-16.43c-0.87-0.76-1.6-0.66-1.69-0.63l-0.71,0.25l-0.05-0.16c-1.11,0.29-3.78,2.56-5.34,10.59
				c-1.49,7.61-1.97,21.29-2.52,37.11c-0.39,10.99-0.82,23.45-1.66,35.97c-0.68,10.27-3.86,17.5-9.44,21.49
				c-7.91,5.65-18.18,2.89-21.56,1.99c-0.37-0.1-0.66-0.19-0.83-0.21l-0.17-0.04c-16.57-3.1-24.43-2.36-25.61-1.13
				c0.11,3.2,7.71,6.46,12.87,7.65c30.95,7.95,53.9,26.78,66.43,54.45c9.66,21.31,10.15,40.88,10.15,44.6v70.73
				c0.81,0.61,1.56,1.23,2.31,1.86c0.31,0.26,0.61,0.52,0.91,0.78c0.06,0.06,0.12,0.11,0.17,0.16c0.42,0.39,0.84,0.77,1.24,1.16
				c0.42,0.41,0.83,0.82,1.23,1.23c0.02,0.01,0.04,0.04,0.06,0.06c0.29,0.3,0.56,0.6,0.83,0.89c0.25,0.26,0.48,0.53,0.72,0.81
				c0.06,0.06,0.11,0.12,0.17,0.2c0.27,0.32,0.55,0.65,0.79,0.97c0.29,0.34,0.56,0.68,0.82,1.04c0.31,0.42,0.62,0.83,0.93,1.27
				c0.04,0.05,0.07,0.11,0.11,0.17c0.31,0.45,0.61,0.89,0.89,1.35c0.22,0.34,0.43,0.68,0.63,1.04c0.39,0.62,0.73,1.24,1.07,1.89
				c0.21,0.4,0.41,0.81,0.61,1.22c0.3,0.61,0.58,1.22,0.84,1.85c0.22,0.52,0.43,1.06,0.63,1.59c0.21,0.53,0.4,1.08,0.58,1.63
				c0.11,0.25,0.19,0.51,0.25,0.77c0.07,0.39,0.11,0.71,0.11,1.01c0,0.91-0.25,1.76-0.72,2.56c-2.78,5.07-5.36,10.36-7.71,15.79
				c-0.37,0.86-0.74,1.73-1.11,2.6c0.88-0.09,1.76-0.16,2.65-0.22c0.41-0.86,0.82-1.73,1.24-2.58c0.99-2.02,2.01-4.05,3.07-6.04
				c0.82-1.55,1.66-3.09,2.52-4.62c0.02-0.02,0.02-0.04,0.04-0.06c0.86-1.5,1.73-3.01,2.62-4.48c4.68-7.77,9.92-15.23,15.66-22.29
				c0.48-0.61,0.98-1.2,1.48-1.81c0.45-0.53,0.91-1.08,1.35-1.61v-86.98c0-70.27,44.98-99.64,58.77-106.97
				c4.87-2.58,9.39-4.99,12.8-7.1c3.42-2.12,5.73-3.95,6.14-5.37C284.72,174.09,284.75,173.68,284.33,172.93z M180.38,402.26
				c-0.16-0.45-0.35-0.89-0.52-1.33c-0.12-0.3-0.25-0.58-0.37-0.86c-0.27-0.62-0.56-1.22-0.87-1.81c-0.15-0.29-0.3-0.58-0.46-0.87
				c-0.2-0.36-0.4-0.72-0.61-1.08c-0.16-0.26-0.32-0.53-0.48-0.79c-0.47-0.75-0.96-1.47-1.49-2.19c-0.21-0.3-0.43-0.6-0.66-0.88
				c-0.35-0.45-0.71-0.89-1.09-1.34c-0.26-0.31-0.52-0.61-0.78-0.89c-0.32-0.36-0.66-0.72-1.01-1.07c-0.34-0.35-0.68-0.7-1.04-1.04
				c-0.79-0.77-1.64-1.53-2.53-2.25c-0.29-0.25-0.6-0.48-0.89-0.72l-8.01,7.19c-7.54,7.58-11.69,17.62-11.69,28.3
				c0,2.25,0.19,4.47,0.57,6.64c0.14,0.83,0.3,1.65,0.48,2.46c7.13-2.05,14.48-3.59,22.01-4.56c0.04-0.36,0.1-0.72,0.21-1.08
				l0.09-0.25c0.09-0.24,0.15-0.38,0.21-0.52c0.11-0.26,0.21-0.51,0.32-0.77c2.68-6.48,5.74-12.8,9.03-18.83l0.07-0.11
				C180.71,403.16,180.55,402.71,180.38,402.26z M284.33,172.93c-1.89-3.32-8.59-1.45-8.66-1.43c-0.1,0.02-16.95,5.61-28.24,8.69
				c-6.73,1.84-10.62-0.02-12.69-1.92c-3.46-3.18-4-8.2-3.34-11.82c0.86-4.73,9.5-16.84,19.06-29.88c1.64-2.24,3.01-4.11,3.89-5.35
				c4.42-6.3,5.45-11.93,3.65-13.25c-2.16-1.58-4.26-1.08-9.79,2.33c-4.26,2.65-24.8,26.96-31.88,35.76
				c-3.24,4.02-7.39,5.71-11.08,4.53c-3.35-1.08-5.68-4.36-5.9-8.36c-0.3-5.49,2.66-12.25,7.54-23.44c1.27-2.89,2.67-6.11,4.19-9.69
				c6.12-14.42,5.75-24.73,4.25-25.77c0,0.01-0.48,0-1.58,0.75c-7.81,5.43-25.78,35.69-30.53,51.42
				c-2.58,8.59-6.41,13.79-11.35,15.42c-3.48,1.16-7.23,0.43-10.56-2.02c-6.89-5.08-9.1-25.98-8.23-44.44
				c0.56-11.91-1.94-15.46-3.03-16.43c-0.87-0.76-1.6-0.66-1.69-0.63l-0.71,0.25l-0.05-0.16c-1.11,0.29-3.78,2.56-5.34,10.59
				c-1.49,7.61-1.97,21.29-2.52,37.11c-0.39,10.99-0.82,23.45-1.66,35.97c-0.68,10.27-3.86,17.5-9.44,21.49
				c-7.91,5.65-18.18,2.89-21.56,1.99c-0.37-0.1-0.66-0.19-0.83-0.21l-0.17-0.04c-16.57-3.1-24.43-2.36-25.61-1.13
				c0.11,3.2,7.71,6.46,12.87,7.65c30.95,7.95,53.9,26.78,66.43,54.45c9.66,21.31,10.15,40.88,10.15,44.6v70.73
				c0.81,0.61,1.56,1.23,2.31,1.86c0.31,0.26,0.61,0.52,0.91,0.78c0.06,0.06,0.12,0.11,0.17,0.16c0.42,0.39,0.84,0.77,1.24,1.16
				c0.42,0.41,0.83,0.82,1.23,1.23c0.02,0.01,0.04,0.04,0.06,0.06c0.29,0.3,0.56,0.6,0.83,0.89c0.25,0.26,0.48,0.53,0.72,0.81
				c0.06,0.06,0.11,0.12,0.17,0.2c0.27,0.32,0.55,0.65,0.79,0.97c0.29,0.34,0.56,0.68,0.82,1.04c0.31,0.42,0.62,0.83,0.93,1.27
				c0.04,0.05,0.07,0.11,0.11,0.17c0.31,0.45,0.61,0.89,0.89,1.35c0.22,0.34,0.43,0.68,0.63,1.04c0.39,0.62,0.73,1.24,1.07,1.89
				c0.21,0.4,0.41,0.81,0.61,1.22c0.3,0.61,0.58,1.22,0.84,1.85c0.22,0.52,0.43,1.06,0.63,1.59c0.21,0.53,0.4,1.08,0.58,1.63
				c0.11,0.25,0.19,0.51,0.25,0.77c0.07,0.39,0.11,0.71,0.11,1.01c0,0.91-0.25,1.76-0.72,2.56c-2.78,5.07-5.36,10.36-7.71,15.79
				c-0.37,0.86-0.74,1.73-1.11,2.6c0.88-0.09,1.76-0.16,2.65-0.22c0.41-0.86,0.82-1.73,1.24-2.58c0.99-2.02,2.01-4.05,3.07-6.04
				c0.82-1.55,1.66-3.09,2.52-4.62c0.02-0.02,0.02-0.04,0.04-0.06c0.86-1.5,1.73-3.01,2.62-4.48c4.68-7.77,9.92-15.23,15.66-22.29
				c0.48-0.61,0.98-1.2,1.48-1.81c0.45-0.53,0.91-1.08,1.35-1.61v-86.98c0-70.27,44.98-99.64,58.77-106.97
				c4.87-2.58,9.39-4.99,12.8-7.1c3.42-2.12,5.73-3.95,6.14-5.37C284.72,174.09,284.75,173.68,284.33,172.93z M216.23,392.28
				l-6.76-6.76c-0.24,0.29-0.46,0.56-0.68,0.84c-0.63,0.76-1.25,1.52-1.86,2.29c-0.41,0.51-0.81,1.02-1.2,1.53
				c-2.81,3.59-5.48,7.28-8.01,11.05c-0.46,0.68-0.91,1.37-1.35,2.05c-0.45,0.68-0.89,1.37-1.33,2.06c-0.91,1.42-1.79,2.86-2.65,4.3
				c-0.79,1.3-1.55,2.62-2.3,3.95c-0.83,1.47-1.64,2.96-2.43,4.45c-0.61,1.16-1.2,2.3-1.78,3.44c-0.43,0.84-0.86,1.69-1.27,2.53
				c2.05-0.1,4.12-0.14,6.2-0.14c12.56,0,24.76,1.53,36.44,4.41c0.16-0.82,0.3-1.64,0.39-2.47c0.24-1.7,0.35-3.44,0.35-5.18
				C227.98,409.94,223.81,399.86,216.23,392.28z M284.33,172.93c-1.89-3.32-8.59-1.45-8.66-1.43c-0.1,0.02-16.95,5.61-28.24,8.69
				c-6.73,1.84-10.62-0.02-12.69-1.92c-3.46-3.18-4-8.2-3.34-11.82c0.86-4.73,9.5-16.84,19.06-29.88c1.64-2.24,3.01-4.11,3.89-5.35
				c4.42-6.3,5.45-11.93,3.65-13.25c-2.16-1.58-4.26-1.08-9.79,2.33c-4.26,2.65-24.8,26.96-31.88,35.76
				c-3.24,4.02-7.39,5.71-11.08,4.53c-3.35-1.08-5.68-4.36-5.9-8.36c-0.3-5.49,2.66-12.25,7.54-23.44c1.27-2.89,2.67-6.11,4.19-9.69
				c6.12-14.42,5.75-24.73,4.25-25.77c0,0.01-0.48,0-1.58,0.75c-7.81,5.43-25.78,35.69-30.53,51.42
				c-2.58,8.59-6.41,13.79-11.35,15.42c-3.48,1.16-7.23,0.43-10.56-2.02c-6.89-5.08-9.1-25.98-8.23-44.44
				c0.56-11.91-1.94-15.46-3.03-16.43c-0.87-0.76-1.6-0.66-1.69-0.63l-0.71,0.25l-0.05-0.16c-1.11,0.29-3.78,2.56-5.34,10.59
				c-1.49,7.61-1.97,21.29-2.52,37.11c-0.39,10.99-0.82,23.45-1.66,35.97c-0.68,10.27-3.86,17.5-9.44,21.49
				c-7.91,5.65-18.18,2.89-21.56,1.99c-0.37-0.1-0.66-0.19-0.83-0.21l-0.17-0.04c-16.57-3.1-24.43-2.36-25.61-1.13
				c0.11,3.2,7.71,6.46,12.87,7.65c30.95,7.95,53.9,26.78,66.43,54.45c9.66,21.31,10.15,40.88,10.15,44.6v70.73
				c0.81,0.61,1.56,1.23,2.31,1.86c0.31,0.26,0.61,0.52,0.91,0.78c0.06,0.06,0.12,0.11,0.17,0.16c0.42,0.39,0.84,0.77,1.24,1.16
				c0.42,0.41,0.83,0.82,1.23,1.23c0.02,0.01,0.04,0.04,0.06,0.06c0.29,0.3,0.56,0.6,0.83,0.89c0.25,0.26,0.48,0.53,0.72,0.81
				c0.06,0.06,0.11,0.12,0.17,0.2c0.27,0.32,0.55,0.65,0.79,0.97c0.29,0.34,0.56,0.68,0.82,1.04c0.31,0.42,0.62,0.83,0.93,1.27
				c0.04,0.05,0.07,0.11,0.11,0.17c0.31,0.45,0.61,0.89,0.89,1.35c0.22,0.34,0.43,0.68,0.63,1.04c0.39,0.62,0.73,1.24,1.07,1.89
				c0.21,0.4,0.41,0.81,0.61,1.22c0.3,0.61,0.58,1.22,0.84,1.85c0.22,0.52,0.43,1.06,0.63,1.59c0.21,0.53,0.4,1.08,0.58,1.63
				c0.11,0.25,0.19,0.51,0.25,0.77c0.07,0.39,0.11,0.71,0.11,1.01c0,0.91-0.25,1.76-0.72,2.56c-2.78,5.07-5.36,10.36-7.71,15.79
				c-0.37,0.86-0.74,1.73-1.11,2.6c0.88-0.09,1.76-0.16,2.65-0.22c0.41-0.86,0.82-1.73,1.24-2.58c0.99-2.02,2.01-4.05,3.07-6.04
				c0.82-1.55,1.66-3.09,2.52-4.62c0.02-0.02,0.02-0.04,0.04-0.06c0.86-1.5,1.73-3.01,2.62-4.48c4.68-7.77,9.92-15.23,15.66-22.29
				c0.48-0.61,0.98-1.2,1.48-1.81c0.45-0.53,0.91-1.08,1.35-1.61v-86.98c0-70.27,44.98-99.64,58.77-106.97
				c4.87-2.58,9.39-4.99,12.8-7.1c3.42-2.12,5.73-3.95,6.14-5.37C284.72,174.09,284.75,173.68,284.33,172.93z"/>
			<path class="st2" d="M177.41,421.96c-0.37,0.86-0.74,1.73-1.11,2.6c-0.1,0.24-0.2,0.48-0.3,0.72l-0.11,0.25
				c-0.04,0.16-0.04,0.27-0.04,0.32c0,0.61,0.47,1.12,1.08,1.14c0.1-0.01,0.19-0.02,0.29-0.02c0.14-0.01,0.29-0.06,0.4-0.15v-0.16
				l0.46-0.42l0.12-0.3c0.25-0.53,0.5-1.07,0.74-1.6c0.41-0.86,0.82-1.73,1.24-2.58C179.26,421.81,178.34,421.87,177.41,421.96z
				 M177.41,421.96c-0.37,0.86-0.74,1.73-1.11,2.6c-0.1,0.24-0.2,0.48-0.3,0.72l-0.11,0.25c-0.04,0.16-0.04,0.27-0.04,0.32
				c0,0.61,0.47,1.12,1.08,1.14c0.1-0.01,0.19-0.02,0.29-0.02c0.14-0.01,0.29-0.06,0.4-0.15v-0.16l0.46-0.42l0.12-0.3
				c0.25-0.53,0.5-1.07,0.74-1.6c0.41-0.86,0.82-1.73,1.24-2.58C179.26,421.81,178.34,421.87,177.41,421.96z M173.56,426.98
				c0.04,0.11,0.07,0.24,0.12,0.35h0.01C173.65,427.21,173.6,427.09,173.56,426.98z M177.41,421.96c-0.37,0.86-0.74,1.73-1.11,2.6
				c-0.1,0.24-0.2,0.48-0.3,0.72l-0.11,0.25c-0.04,0.16-0.04,0.27-0.04,0.32c0,0.61,0.47,1.12,1.08,1.14
				c0.1-0.01,0.19-0.02,0.29-0.02c0.14-0.01,0.29-0.06,0.4-0.15v-0.16l0.46-0.42l0.12-0.3c0.25-0.53,0.5-1.07,0.74-1.6
				c0.41-0.86,0.82-1.73,1.24-2.58C179.26,421.81,178.34,421.87,177.41,421.96z M190.81,421.39c-1.65,0-3.29,0.02-4.93,0.09
				c-0.43,0.84-0.86,1.69-1.27,2.53c-0.41,0.83-0.81,1.68-1.2,2.52c2.46-0.11,4.93-0.17,7.4-0.17c12.22,0,24.23,1.45,35.89,4.35
				c0.21-0.79,0.4-1.61,0.55-2.42c0.16-0.82,0.3-1.64,0.39-2.47C215.66,422.86,203.34,421.39,190.81,421.39z M177.41,421.96
				c-0.37,0.86-0.74,1.73-1.11,2.6c-0.1,0.24-0.2,0.48-0.3,0.72l-0.11,0.25c-0.04,0.16-0.04,0.27-0.04,0.32
				c0,0.61,0.47,1.12,1.08,1.14c0.1-0.01,0.19-0.02,0.29-0.02c0.14-0.01,0.29-0.06,0.4-0.15v-0.16l0.46-0.42l0.12-0.3
				c0.25-0.53,0.5-1.07,0.74-1.6c0.41-0.86,0.82-1.73,1.24-2.58C179.26,421.81,178.34,421.87,177.41,421.96z M173.56,426.98
				c0.04,0.11,0.07,0.24,0.12,0.35h0.01C173.65,427.21,173.6,427.09,173.56,426.98z M148.44,427.27c0.14,0.83,0.3,1.65,0.48,2.46
				c0.2,0.81,0.41,1.6,0.65,2.38c7.07-2.04,14.28-3.54,21.6-4.47c-0.17-0.57-0.27-1.17-0.27-1.8c0-0.22,0.01-0.45,0.04-0.67
				c0.04-0.36,0.1-0.72,0.21-1.08l0.09-0.25c0.09-0.24,0.15-0.38,0.21-0.52c0.11-0.26,0.21-0.51,0.32-0.77
				C163.85,423.51,156.06,425.09,148.44,427.27z M177.41,421.96c-0.37,0.86-0.74,1.73-1.11,2.6c-0.1,0.24-0.2,0.48-0.3,0.72
				l-0.11,0.25c-0.04,0.16-0.04,0.27-0.04,0.32c0,0.61,0.47,1.12,1.08,1.14c0.1-0.01,0.19-0.02,0.29-0.02
				c0.14-0.01,0.29-0.06,0.4-0.15v-0.16l0.46-0.42l0.12-0.3c0.25-0.53,0.5-1.07,0.74-1.6c0.41-0.86,0.82-1.73,1.24-2.58
				C179.26,421.81,178.34,421.87,177.41,421.96z M173.56,426.98c0.04,0.11,0.07,0.24,0.12,0.35h0.01
				C173.65,427.21,173.6,427.09,173.56,426.98z M177.41,421.96c-0.37,0.86-0.74,1.73-1.11,2.6c-0.1,0.24-0.2,0.48-0.3,0.72
				l-0.11,0.25c-0.04,0.16-0.04,0.27-0.04,0.32c0,0.61,0.47,1.12,1.08,1.14c0.1-0.01,0.19-0.02,0.29-0.02
				c0.14-0.01,0.29-0.06,0.4-0.15v-0.16l0.46-0.42l0.12-0.3c0.25-0.53,0.5-1.07,0.74-1.6c0.41-0.86,0.82-1.73,1.24-2.58
				C179.26,421.81,178.34,421.87,177.41,421.96z"/>
			<path class="st2" d="M381.6,194.19c0,32.94-26.13,59.75-58.79,60.88c-0.71-0.02-1.4-0.04-2.11-0.04s-1.42,0.01-2.12,0.04
				c-39.65,1.12-71.47,33.62-71.47,73.55v55.64c0,21.76,6.52,41.99,17.71,58.86c-5.68-3.2-11.59-6.02-17.71-8.45
				c-4.88-1.95-9.89-3.66-15.02-5.09c0.15-0.82,0.3-1.65,0.41-2.48c0.31-2.12,0.46-4.27,0.46-6.46c0-12.02-4.69-23.34-13.2-31.87
				l-7.85-7.84v-87.08c0-33.76,10.74-57.65,23.12-73.98c12.39-16.33,26.43-25.09,33.01-28.59c13.85-7.38,20.02-10.83,21.37-15.47
				c0.51-1.75,0.25-3.54-0.76-5.33c-3.09-5.43-10.51-4.91-14.47-3.71c-0.17,0.06-16.9,5.6-28.06,8.64c-2.52,0.7-5.95,1.11-8.02-0.79
				c-1.99-1.83-2.22-5.05-1.83-7.28c0.72-4,12.52-20.09,18.19-27.83c1.65-2.26,3.04-4.16,3.94-5.44c4.71-6.69,8.18-15.98,2.52-20.12
				c-5.45-3.96-10.93-0.58-15.34,2.14c-6.25,3.9-32.87,36.53-33.13,36.86c-1.9,2.36-4.02,3.45-5.69,2.92
				c-1.38-0.45-2.35-1.97-2.45-3.91c-0.24-4.3,2.53-10.64,7.12-21.16c1.28-2.91,2.68-6.14,4.21-9.72
				c5.18-12.21,7.92-27.41,2.81-31.57c-1.17-0.96-3.69-2.15-7.54,0.52c-9.48,6.57-27.71,38.3-32.45,54.05
				c-2.61,8.67-5.87,11.39-8.16,12.16c-2.56,0.84-4.88-0.46-6.05-1.32c-3.25-2.4-7.33-16.46-6.21-40.21
				c0.48-10.61-1.19-17.54-5-20.62c-2.26-1.83-4.52-1.73-5.45-1.58c-1.79,0.06-7.6,1.34-10.21,14.63c-1.56,8-2.05,21.86-2.61,37.89
				c-0.37,10.95-0.81,23.36-1.65,35.8c-0.58,8.72-3.07,14.69-7.38,17.77c-6,4.3-14.26,2.07-17.37,1.24
				c-0.55-0.15-0.96-0.26-1.22-0.3l-0.16-0.04c-16.12-3.02-26.12-3.04-29.71-0.06c-1.17,0.97-1.8,2.27-1.8,3.74
				c0,8.27,13.92,11.92,16.65,12.56c70.77,18.17,72.8,86.48,72.8,94.21v70.88l-8.76,7.86l-0.1,0.09
				c-8.51,8.52-13.19,19.83-13.19,31.87c0,2.73,0.25,5.44,0.75,8.1c0.15,0.82,0.32,1.64,0.51,2.46c-3.27,1.04-6.5,2.21-9.67,3.48
				c-5.89,2.33-11.61,5.07-17.11,8.12c10.8-16.34,17.11-35.79,17.11-56.63v-57.54c0-39.93-31.79-72.43-71.46-73.55
				c-0.71-0.02-1.42-0.04-2.12-0.04c-0.71,0-1.42,0.01-2.12,0.04C26.13,253.94,0,227.12,0,194.19c0-33.62,27.27-60.88,60.89-60.88
				c0.81,0,1.59,0.01,2.37,0.05c-0.12-2.35-0.19-4.71-0.19-7.08C63.08,56.54,119.61,0,189.34,0c69.75,0,126.28,56.54,126.28,126.28
				c0,2.43-0.06,4.84-0.2,7.25c1.73-0.15,3.49-0.22,5.27-0.22C354.32,133.31,381.6,160.57,381.6,194.19z"/>
		</g>
		<g>
			<path class="st2" d="M284.64,174.4c-0.41,1.42-2.72,3.24-6.14,5.37c-3.42,2.11-7.94,4.52-12.8,7.1
				c-13.79,7.33-58.77,36.7-58.77,106.97v86.98c-0.45,0.53-0.91,1.08-1.35,1.61c-0.5,0.61-0.99,1.2-1.48,1.81
				c-5.74,7.07-10.98,14.52-15.66,22.29c-0.89,1.48-1.76,2.98-2.62,4.48c-0.01,0.02-0.01,0.04-0.04,0.06
				c-0.86,1.53-1.7,3.07-2.52,4.62c-1.06,1.99-2.07,4.01-3.07,6.04c-0.42,0.86-0.83,1.73-1.24,2.58c-0.25,0.53-0.5,1.07-0.74,1.6
				l-0.12,0.3l-0.46,0.42v0.16c-0.11,0.09-0.26,0.14-0.4,0.15c-0.07,0.02-0.14,0.04-0.21,0.04c-0.02,0-0.05,0-0.07-0.01
				c-0.61-0.02-1.08-0.53-1.08-1.14c0-0.05,0-0.16,0.04-0.32l0.11-0.25c0.1-0.24,0.2-0.48,0.3-0.72c0.36-0.87,0.73-1.74,1.11-2.6
				c2.35-5.43,4.93-10.72,7.71-15.79c0.47-0.79,0.72-1.65,0.72-2.56c0-0.3-0.04-0.62-0.11-1.01c-0.06-0.26-0.14-0.52-0.25-0.77
				c-0.19-0.55-0.37-1.09-0.58-1.63c-0.2-0.53-0.41-1.07-0.63-1.59c-0.26-0.63-0.55-1.24-0.84-1.85c-0.2-0.41-0.4-0.82-0.61-1.22
				c-0.34-0.65-0.68-1.27-1.07-1.89c-0.2-0.36-0.41-0.71-0.63-1.04c-0.29-0.46-0.58-0.91-0.89-1.35c-0.04-0.06-0.07-0.12-0.11-0.17
				c-0.31-0.43-0.62-0.84-0.93-1.27c-0.26-0.36-0.53-0.71-0.82-1.04c-0.25-0.32-0.52-0.65-0.79-0.97c-0.06-0.07-0.11-0.14-0.17-0.2
				c-0.24-0.27-0.47-0.55-0.72-0.81c-0.27-0.3-0.55-0.6-0.83-0.89c-0.02-0.02-0.04-0.05-0.06-0.06c-0.4-0.41-0.81-0.82-1.23-1.23
				c-0.4-0.39-0.82-0.77-1.24-1.16c-0.05-0.05-0.11-0.1-0.17-0.16c-0.3-0.26-0.6-0.52-0.91-0.78c-0.75-0.63-1.5-1.25-2.31-1.86
				v-70.73c0-3.71-0.48-23.29-10.15-44.6c-12.53-27.67-35.48-46.5-66.43-54.45c-5.15-1.19-12.75-4.45-12.87-7.65
				c1.18-1.23,9.04-1.97,25.61,1.13l0.17,0.04c0.17,0.02,0.46,0.11,0.83,0.21c3.38,0.91,13.65,3.66,21.56-1.99
				c5.58-3.99,8.76-11.21,9.44-21.49c0.84-12.52,1.28-24.98,1.66-35.97c0.55-15.82,1.03-29.5,2.52-37.11
				c1.56-8.04,4.24-10.31,5.34-10.59l0.05,0.16l0.71-0.25c0.09-0.02,0.82-0.12,1.69,0.63c1.09,0.97,3.59,4.52,3.03,16.43
				c-0.87,18.46,1.34,39.36,8.23,44.44c3.33,2.46,7.08,3.18,10.56,2.02c4.94-1.64,8.77-6.83,11.35-15.42
				c4.74-15.72,22.71-45.99,30.53-51.42c1.09-0.75,1.58-0.73,1.58-0.75c1.5,1.04,1.88,11.35-4.25,25.77
				c-1.52,3.58-2.92,6.79-4.19,9.69c-4.88,11.19-7.84,17.95-7.54,23.44c0.22,4,2.55,7.28,5.9,8.36c3.69,1.18,7.84-0.51,11.08-4.53
				c7.08-8.79,27.62-33.11,31.88-35.76c5.53-3.42,7.63-3.91,9.79-2.33c1.8,1.32,0.77,6.95-3.65,13.25
				c-0.88,1.24-2.25,3.12-3.89,5.35c-9.56,13.04-18.21,25.15-19.06,29.88c-0.66,3.63-0.12,8.64,3.34,11.82
				c2.07,1.9,5.96,3.76,12.69,1.92c11.29-3.08,28.14-8.67,28.24-8.69c0.06-0.02,6.77-1.89,8.66,1.43
				C284.75,173.68,284.72,174.09,284.64,174.4z"/>
			<path class="st2" d="M209.48,385.52c-0.24,0.29-0.46,0.56-0.68,0.84c0.22-0.29,0.46-0.56,0.7-0.83L209.48,385.52z M173.56,426.98
				c0.04,0.11,0.07,0.24,0.12,0.35h0.01C173.65,427.21,173.6,427.09,173.56,426.98z"/>
		</g>
		<g>
			<path class="st2" d="M227.98,420.63c0,1.74-0.11,3.48-0.35,5.18c-0.09,0.83-0.22,1.65-0.39,2.47c-0.15,0.81-0.34,1.63-0.55,2.42
				c-1.76,6.84-5.33,13.11-10.46,18.24c-7.56,7.56-17.61,11.74-28.35,11.75c-6.12-0.01-11.96-1.35-17.36-3.99
				c-0.1-0.05-0.21-0.11-0.35-0.17c-1.71-0.82-3.34-1.78-4.86-2.84l-0.15-0.09c-0.15-0.1-0.31-0.22-0.51-0.37l-0.19-0.17l-0.19-0.1
				c-7.12-5.19-12.25-12.57-14.73-20.84c-0.24-0.78-0.45-1.58-0.65-2.38c-0.19-0.81-0.35-1.63-0.48-2.46
				c-0.39-2.17-0.57-4.4-0.57-6.64c0-10.68,4.15-20.73,11.69-28.3l8.01-7.19c0.3,0.24,0.61,0.47,0.89,0.72
				c0.89,0.72,1.74,1.48,2.53,2.25c0.36,0.35,0.71,0.7,1.04,1.04c0.35,0.35,0.68,0.71,1.01,1.07c0.26,0.29,0.52,0.58,0.78,0.89
				c0.39,0.45,0.74,0.89,1.09,1.34c0.22,0.29,0.45,0.58,0.66,0.88c0.53,0.72,1.02,1.44,1.49,2.19c0.16,0.26,0.32,0.53,0.48,0.79
				c0.21,0.36,0.41,0.72,0.61,1.08c0.16,0.29,0.31,0.58,0.46,0.87c0.31,0.6,0.6,1.19,0.87,1.81c0.12,0.27,0.25,0.56,0.37,0.86
				c0.17,0.43,0.36,0.88,0.52,1.33c0.17,0.45,0.34,0.89,0.48,1.35l-0.07,0.11c-3.29,6.02-6.35,12.34-9.03,18.83
				c-0.11,0.26-0.21,0.51-0.32,0.77c-0.06,0.14-0.12,0.29-0.21,0.52l-0.09,0.25c-0.11,0.36-0.17,0.72-0.21,1.08
				c-0.02,0.22-0.04,0.45-0.04,0.67c0,0.63,0.1,1.23,0.27,1.8c0.77,2.51,3.1,4.32,5.85,4.32c2.01,0,3.87-0.98,5.03-2.66l0.55-0.86
				v-0.16l0.15-0.32c0.22-0.48,0.45-0.97,0.67-1.44c0.4-0.84,0.79-1.69,1.2-2.52c0.41-0.84,0.83-1.69,1.27-2.53
				c0.57-1.14,1.17-2.29,1.78-3.44c0.8-1.49,1.6-2.98,2.43-4.45c0.75-1.33,1.5-2.65,2.3-3.95c0.86-1.44,1.74-2.88,2.65-4.3
				c0.43-0.7,0.88-1.38,1.33-2.06c0.45-0.68,0.89-1.37,1.35-2.05c2.53-3.78,5.2-7.46,8.01-11.05c0.4-0.51,0.79-1.02,1.2-1.53
				c0.61-0.77,1.23-1.53,1.86-2.29c0.22-0.29,0.45-0.56,0.68-0.84l6.76,6.76C223.81,399.86,227.98,409.94,227.98,420.63z"/>
			<path class="st2" d="M173.56,426.98c0.04,0.11,0.07,0.24,0.12,0.35h0.01C173.65,427.21,173.6,427.09,173.56,426.98z
				 M168.46,385.86c0.89,0.73,1.74,1.49,2.53,2.25C170.19,387.33,169.35,386.58,168.46,385.86z M168.46,385.86
				c0.89,0.73,1.74,1.49,2.53,2.25C170.19,387.33,169.35,386.58,168.46,385.86z M168.46,385.86c0.89,0.73,1.74,1.49,2.53,2.25
				C170.19,387.33,169.35,386.58,168.46,385.86z M173.56,426.98c0.04,0.11,0.07,0.24,0.12,0.35h0.01
				C173.65,427.21,173.6,427.09,173.56,426.98z M168.46,385.86c0.89,0.73,1.74,1.49,2.53,2.25
				C170.19,387.33,169.35,386.58,168.46,385.86z M168.46,385.86c0.89,0.73,1.74,1.49,2.53,2.25
				C170.19,387.33,169.35,386.58,168.46,385.86z M173.56,426.98c0.04,0.11,0.07,0.24,0.12,0.35h0.01
				C173.65,427.21,173.6,427.09,173.56,426.98z"/>
		</g>
	</g>
</g>
</svg>
